<?xml version="1.0" encoding="UTF-8"?>
<svg xmlns="http://www.w3.org/2000/svg" xmlns:xlink="http://www.w3.org/1999/xlink" width="73.875pt" height="108pt" viewBox="16.750 0 73.875 108">
<path fill-rule="nonzero" fill="rgb(13.729858%, 12.159729%, 12.548828%)" fill-opacity="1" stroke-width="2" stroke-linecap="butt" stroke-linejoin="miter" stroke="rgb(13.729858%, 12.159729%, 12.548828%)" stroke-opacity="1" stroke-miterlimit="4" d="M 335.234375 401.289062 C 335.234375 401.289062 374.765625 400.3125 471.679688 395.390625 C 550.625 391.367188 745 381.054688 745 381.054688 C 745 381.054688 553.4375 373.90625 474.53125 369.882812 C 377.578125 364.960938 335.234375 360.820312 335.234375 360.820312 " transform="matrix(0.1, 0, 0, -0.1, 0, 108)"/>
<path fill-rule="nonzero" fill="rgb(13.729858%, 12.159729%, 12.548828%)" fill-opacity="1" stroke-width="2" stroke-linecap="butt" stroke-linejoin="miter" stroke="rgb(13.729858%, 12.159729%, 12.548828%)" stroke-opacity="1" stroke-miterlimit="4" d="M 334.21875 699.0625 C 334.21875 699.0625 346.992188 681.914062 375.390625 650.46875 C 398.476562 624.882812 479.648438 540.898438 479.648438 540.898438 C 479.648438 540.898438 395.898438 622.304688 370.3125 645.429688 C 338.90625 673.789062 321.757812 686.5625 321.757812 686.5625 " transform="matrix(0.1, 0, 0, -0.1, 0, 108)"/>
<path fill-rule="nonzero" fill="rgb(13.729858%, 12.159729%, 12.548828%)" fill-opacity="1" stroke-width="2" stroke-linecap="butt" stroke-linejoin="miter" stroke="rgb(13.729858%, 12.159729%, 12.548828%)" stroke-opacity="1" stroke-miterlimit="4" d="M 599.726562 540.664062 C 599.726562 540.664062 612.5 523.515625 640.859375 492.109375 C 663.984375 466.523438 742.226562 386.054688 742.226562 386.054688 C 742.226562 386.054688 661.367188 463.945312 635.820312 487.03125 C 604.375 515.429688 587.226562 528.164062 587.226562 528.164062 " transform="matrix(0.1, 0, 0, -0.1, 0, 108)"/>
<path fill-rule="nonzero" fill="rgb(13.729858%, 12.159729%, 12.548828%)" fill-opacity="1" stroke-width="2" stroke-linecap="butt" stroke-linejoin="miter" stroke="rgb(13.729858%, 12.159729%, 12.548828%)" stroke-opacity="1" stroke-miterlimit="4" d="M 332.265625 380.9375 C 332.265625 380.9375 345.039062 398.085938 373.398438 429.53125 C 396.523438 455.078125 479.648438 540.898438 479.648438 540.898438 C 479.648438 540.898438 393.90625 457.695312 368.359375 434.570312 C 336.914062 406.210938 319.765625 393.4375 319.765625 393.4375 " transform="matrix(0.1, 0, 0, -0.1, 0, 108)"/>
<path fill-rule="nonzero" fill="rgb(13.729858%, 12.159729%, 12.548828%)" fill-opacity="1" stroke-width="2" stroke-linecap="butt" stroke-linejoin="miter" stroke="rgb(13.729858%, 12.159729%, 12.548828%)" stroke-opacity="1" stroke-miterlimit="4" d="M 597.460938 537.929688 C 597.460938 537.929688 610.234375 555.039062 638.59375 586.484375 C 661.71875 612.070312 739.921875 692.539062 739.921875 692.539062 C 739.921875 692.539062 659.101562 614.648438 633.515625 591.5625 C 602.109375 563.164062 584.960938 550.390625 584.960938 550.390625 " transform="matrix(0.1, 0, 0, -0.1, 0, 108)"/>
<path fill-rule="nonzero" fill="rgb(13.729858%, 12.159729%, 12.548828%)" fill-opacity="1" stroke-width="2" stroke-linecap="butt" stroke-linejoin="miter" stroke="rgb(13.729858%, 12.159729%, 12.548828%)" stroke-opacity="1" stroke-miterlimit="4" d="M 185.898438 546.171875 C 185.898438 546.171875 201.875 524.765625 237.34375 485.46875 C 266.210938 453.476562 336.132812 380.351562 336.132812 380.351562 C 336.132812 380.351562 262.96875 450.234375 231.015625 479.140625 C 191.71875 514.609375 170.3125 530.546875 170.3125 530.546875 " transform="matrix(0.1, 0, 0, -0.1, 0, 108)"/>
<path fill-rule="nonzero" fill="rgb(13.729858%, 12.159729%, 12.548828%)" fill-opacity="1" stroke-width="2" stroke-linecap="butt" stroke-linejoin="miter" stroke="rgb(13.729858%, 12.159729%, 12.548828%)" stroke-opacity="1" stroke-miterlimit="4" d="M 752.578125 374.6875 C 752.578125 374.6875 768.554688 396.09375 804.023438 435.390625 C 832.890625 467.382812 902.773438 540.507812 902.773438 540.507812 C 902.773438 540.507812 829.648438 470.585938 797.695312 441.71875 C 758.398438 406.25 736.992188 390.273438 736.992188 390.273438 " transform="matrix(0.1, 0, 0, -0.1, 0, 108)"/>
<path fill-rule="nonzero" fill="rgb(13.729858%, 12.159729%, 12.548828%)" fill-opacity="1" stroke-width="2" stroke-linecap="butt" stroke-linejoin="miter" stroke="rgb(13.729858%, 12.159729%, 12.548828%)" stroke-opacity="1" stroke-miterlimit="4" d="M 334.921875 679.101562 C 334.921875 679.101562 374.453125 680.039062 471.40625 684.960938 C 550.3125 689.023438 744.6875 699.296875 744.6875 699.296875 C 744.6875 699.296875 553.164062 706.484375 474.257812 710.46875 C 377.304688 715.429688 334.921875 719.570312 334.921875 719.570312 " transform="matrix(0.1, 0, 0, -0.1, 0, 108)"/>
<path fill-rule="nonzero" fill="rgb(13.729858%, 12.159729%, 12.548828%)" fill-opacity="1" stroke-width="2" stroke-linecap="butt" stroke-linejoin="miter" stroke="rgb(13.729858%, 12.159729%, 12.548828%)" stroke-opacity="1" stroke-miterlimit="4" d="M 185.625 534.21875 C 185.625 534.21875 201.601562 555.625 237.03125 594.921875 C 265.9375 626.914062 335.820312 700.039062 335.820312 700.039062 C 335.820312 700.039062 262.695312 630.15625 230.742188 601.25 C 191.445312 565.78125 170 549.804688 170 549.804688 " transform="matrix(0.1, 0, 0, -0.1, 0, 108)"/>
<path fill-rule="nonzero" fill="rgb(13.729858%, 12.159729%, 12.548828%)" fill-opacity="1" stroke-width="2" stroke-linecap="butt" stroke-linejoin="miter" stroke="rgb(13.729858%, 12.159729%, 12.548828%)" stroke-opacity="1" stroke-miterlimit="4" d="M 752.265625 705.703125 C 752.265625 705.703125 768.242188 684.296875 803.710938 645 C 832.617188 613.007812 902.5 539.882812 902.5 539.882812 C 902.5 539.882812 829.375 609.765625 797.382812 638.671875 C 758.125 674.140625 736.679688 690.078125 736.679688 690.078125 " transform="matrix(0.1, 0, 0, -0.1, 0, 108)"/>
</svg>
