<?xml version="1.0" encoding="utf-8"?>
<!-- Generator: Adobe Illustrator 24.0.1, SVG Export Plug-In . SVG Version: 6.00 Build 0)  -->
<svg version="1.1" id="Layer_1" xmlns="http://www.w3.org/2000/svg" xmlns:xlink="http://www.w3.org/1999/xlink" x="0px" y="0px"
	 viewBox="0 0 2429 3000" style="enable-background:new 0 0 2429 3000;" xml:space="preserve">
<path d="M2406.5,2616.3c-23.1-14.6-54-9.6-74.6,6.9c-21.8,17.5-42.3,36.7-64.4,54c-102.6,78.6-218.1,140.4-341.9,177.9
	c-131.8,39.9-273.3,53.1-410.5,43c-129.4-9.5-259.4-43.8-368-116.8c-100.4-67.4-175.9-166.9-219.3-279.4
	c-55.4-143.5-61.8-300.5-43.4-451.9c6.3-30,9.7-60.6,16.7-90.6c7.3-30.9,16.2-61.4,27.1-91.3c20.5-56.2,47-110.1,78.3-161
	c63.6-103.5,147.1-193.5,236.1-275.5c185-170.4,421.8-346.2,419.3-624C1659.7,566,1507,347,1321.7,203.6
	c-99.3-76.9-213.5-136.4-334.5-170.4C851.8-4.7,709.5-10,571.5,16.6C445,40.9,324.5,93.4,216.1,162.4
	c-53,33.8-103.2,72.1-149.8,114.3c-11.7,10.6-23.3,21.4-34.6,32.5c-10.3,10.1-22.9,20.6-28.5,34.3c-8.8,21.5,1.4,45,21,56.4
	c23.9,13.9,51.5,7.1,71.7-9.4c1.8-1.3,3.5-2.8,5-4.4c0.3-0.3,0.7-0.7,1-1c31.5-33.2,66.2-62.3,101.8-91
	c100.1-74.6,209-135.7,330.1-168.6c122.5-33.2,251.7-35.9,375.3-6.6c216.3,51.3,413.5,191.3,533.7,378.2
	c34.5,53.6,62.6,111.4,81.2,172.4c20.4,67.1,25.8,133.8,19.9,203.4c-5.3,34.3-14.2,66.9-27,99.1c-19.3,40.6-40.9,78.1-68.1,114
	c-81.7,102.8-184.3,185.9-280.2,274.7c-88,81.5-171.2,168.7-238.5,268.4c-68.6,101.7-118.2,213.1-145.2,333
	c-28.3,125.5-32.5,256.4-15.1,383.8c16.7,122.4,56.7,242.7,127.9,344.5c67,95.7,159.3,170.8,263.8,222.1
	c114.8,56.3,243.3,81.6,370.4,86.4c130.6,4.9,262.9-7.7,389.2-41.5c127-34,247.3-89.8,356-163.5c26.5-18,52.3-37.1,77.4-57
	c13.1-10.5,26.1-21.2,38.8-32.2c11.5-9.9,25.3-19.7,32-33.7C2435,2650.5,2424.7,2627.8,2406.5,2616.3z"/>
</svg>
